<svg width="440" height="135" viewBox="0 0 440 135" fill="none" xmlns="http://www.w3.org/2000/svg">
<g clip-path="url(#clip0_120_1530)">
<path fill-rule="evenodd" clip-rule="evenodd" d="M44.7196 3.31485C49.1222 1.95487 55.5027 0.786898 60.3838 0.466904C62.3139 0.338907 69.0453 0.370906 70.9276 0.514903C74.2136 0.770898 77.9302 1.28289 80.4505 1.81088L81.2002 1.98687V15.5706V29.1543H62.2979H43.3956V16.4346V3.73084L44.7196 3.31485ZM145.923 29.1543V16.1946V3.23485H161.236H176.549V16.1946V29.1543H161.236H145.923ZM181.454 16.1946V29.1543H198.203H214.952V16.1946V3.23485H198.203H181.454V16.1946ZM219.977 29.0343V16.0746C219.977 5.81879 220.026 3.11485 220.191 3.11485C220.29 3.11485 221.164 3.22685 222.12 3.35484C228.187 4.13883 232.49 5.96279 236.101 9.27472C240.718 13.4986 243.372 19.6265 244.147 27.8663L244.262 29.0343H232.111H219.977ZM325.016 16.1946V29.1543H339.93H354.845V16.1946V3.23485H339.93H325.016V16.1946ZM359.75 29.1543V16.1786V3.20285L370.166 3.28285C381.093 3.36285 382.161 3.41085 386.787 4.19483C389.26 4.62682 393.311 5.6188 395.64 6.38678L397.475 6.99477L397.522 18.0825L397.554 29.1543H378.652H359.75ZM276.979 3.23485H308.203V29.1543H276.979V3.23485ZM36.0978 7.28265C26.7823 11.9705 18.7269 18.9784 12.9844 27.3942L11.8359 29.0742L11.9542 29.0746L11.9316 29.0943L38.4905 29.1543L38.4307 6.11474L38.4108 6.13195L38.4108 6.11467L36.0978 7.28265ZM7.05048 35.1462C2.82338 44.554 0.398783 55.5938 0.0957078 66.9855L0 70.5535H19.2373H38.4905V52.3138V34.0742H23.0177H7.52902L7.05048 35.1462ZM145.923 70.5535V52.3138V34.0742H161.236H176.549V52.3138V70.5535H161.236H145.923ZM272.077 51.9817V34.0742H251.919L234.093 51.9817H272.077ZM276.979 70.5535V52.3138V34.0742H292.611H308.243V52.3138V70.5535H292.611H276.979ZM325.016 52.3138V70.5535H339.93H354.845V52.3138V34.0742H339.93H325.016V52.3138ZM402.459 70.5535V52.3138V34.0742H416.305H430.135L431.363 36.3622C436.563 46.042 439.371 56.5217 439.881 68.0255L439.993 70.5535H421.218H402.459ZM0.287248 76.3053C0.813641 81.7772 1.30813 85.1531 2.1376 88.9131C3.92415 97.0569 6.79538 104.401 10.7832 111.025L11.9157 112.913H25.2032H38.4906V94.193V75.4734H19.3491H0.207492L0.287248 76.3053ZM43.3956 93.233V84.3532V75.4734H62.2979H81.2002V84.3532V93.233H62.2979H43.3956ZM86.1052 94.193V112.913H107.64H129.174V94.193V75.4734H107.64H86.1052V94.193ZM145.923 112.913V94.193V75.4734H161.236H176.549V94.193V112.913H161.236H145.923ZM181.454 81.6332V87.7931H190.674H199.878L206.577 100.369L213.038 112.913H214.282H214.952V94.193V75.4734H198.203H181.454V81.6332ZM219.857 112.913V94.193V75.4734H231.349H242.824L242.414 75.8894C241.525 76.8013 238.207 79.3613 236.548 80.4012C234.188 81.9052 230.597 83.6972 228.51 84.4332C228.185 84.5452 228.066 84.6732 228.134 84.8332C228.185 84.9771 232.341 91.313 237.386 98.9289L237.468 99.0529L237.478 99.0688C242.464 106.637 246.535 112.817 246.535 112.849C246.535 112.881 240.533 112.913 233.196 112.913H219.857ZM276.979 94.193V112.913H292.611H308.243V94.193V75.4734H292.611H276.979V94.193ZM325.016 112.913V94.193V75.4734H339.93H354.845V94.193V112.913H339.93H325.016ZM402.459 94.193V112.913H413.514H424.568L425.764 111.281C432.942 101.521 437.393 90.721 439.147 78.7053C439.323 77.5053 439.466 76.2733 439.466 75.9853V75.4734H420.963H402.459V94.193ZM30.8429 129.669C25.9527 127.048 21.5222 123.96 17.4409 120.303L14.6833 117.849L26.5961 117.832H38.4906V125.512V133.192L38.0494 133.042C37.167 132.725 32.4055 130.504 30.8429 129.669ZM43.3956 126.312V134.792H62.2979H81.2002V126.312V117.833H62.2979H43.3956V126.312ZM86.1052 134.792V126.312V117.833H107.64H129.174V126.312V134.792H107.64H86.1052ZM145.923 126.312V134.792H161.236H176.549V126.312V117.833H161.236H145.923V126.312ZM219.857 117.832V126.623L224.337 134.872H259.935L249.167 117.832H219.857ZM276.979 126.312V134.792H292.611H308.243V126.312V117.833H292.611H276.979V126.312ZM325.016 134.792V126.312V117.833H339.93H354.845V126.312V134.792H339.93H325.016ZM359.75 126.312V134.792H373.037H386.309L388.59 134.328C391.238 133.768 392.546 133.432 395.449 132.52L397.554 131.864V124.84V117.833H378.652H359.75V126.312ZM402.555 128.392C402.507 128.392 402.459 126.008 402.459 123.112V117.832H409.988C414.455 117.832 417.453 117.896 417.374 117.976C415.268 119.96 410.977 123.32 408.266 125.08C406.67 126.12 402.746 128.392 402.555 128.392ZM402.42 19.2545V9.23472L403.659 9.88095C405.16 10.6517 407.758 12.0802 409.045 12.8577C413.523 15.5484 418.473 19.3561 422.35 23.0791C424.492 25.1206 427.826 28.701 427.901 29.0097L428.021 29.1543H415.161H402.42V19.2545ZM272.077 29.1543V9.23472L255.927 29.1543H272.077ZM86.1052 42.954V51.8338H107.64H129.174L129.077 51.3415C128.028 46.1543 126.528 41.0901 124.544 35.9557L123.818 34.0742H104.962H86.1052V42.954ZM86.1052 3.23485V16.4346V29.1543H103.743H121.397L121.142 28.7063C121.006 28.4663 120.273 27.4583 119.506 26.4504C115.088 20.6248 109.723 15.6478 103.633 11.6829C100.178 9.0412 90.0812 4.56539 86.1052 3.23485Z" fill="white"/>
<path fill-rule="evenodd" clip-rule="evenodd" d="M44.7196 3.31485C49.1222 1.95487 55.5027 0.786898 60.3838 0.466904C62.3139 0.338907 69.0453 0.370906 70.9276 0.514903C74.2136 0.770898 77.9302 1.28289 80.4505 1.81088L81.2002 1.98687V15.5706V29.1543H62.2979H43.3956V16.4346V3.73084L44.7196 3.31485ZM145.923 29.1543V16.1946V3.23485H161.236H176.549V16.1946V29.1543H161.236H145.923ZM181.454 16.1946V29.1543H198.203H214.952V16.1946V3.23485H198.203H181.454V16.1946ZM219.977 29.0343V16.0746C219.977 5.81879 220.026 3.11485 220.191 3.11485C220.29 3.11485 221.164 3.22685 222.12 3.35484C228.187 4.13883 232.49 5.96279 236.101 9.27472C240.718 13.4986 243.372 19.6265 244.147 27.8663L244.262 29.0343H232.111H219.977ZM325.016 16.1946V29.1543H339.93H354.845V16.1946V3.23485H339.93H325.016V16.1946ZM359.75 29.1543V16.1786V3.20285L370.166 3.28285C381.093 3.36285 382.161 3.41085 386.787 4.19483C389.26 4.62682 393.311 5.6188 395.64 6.38678L397.475 6.99477L397.522 18.0825L397.554 29.1543H378.652H359.75ZM276.979 3.23485H308.203V29.1543H276.979V3.23485ZM36.0978 7.28265C26.7823 11.9705 18.7269 18.9784 12.9844 27.3942L11.8359 29.0742L11.9542 29.0746L11.9316 29.0943L38.4905 29.1543L38.4307 6.11474L38.4108 6.13195L38.4108 6.11467L36.0978 7.28265ZM7.05048 35.1462C2.82338 44.554 0.398783 55.5938 0.0957078 66.9855L0 70.5535H19.2373H38.4905V52.3138V34.0742H23.0177H7.52902L7.05048 35.1462ZM145.923 70.5535V52.3138V34.0742H161.236H176.549V52.3138V70.5535H161.236H145.923ZM272.077 51.9817V34.0742H251.919L234.093 51.9817H272.077ZM276.979 70.5535V52.3138V34.0742H292.611H308.243V52.3138V70.5535H292.611H276.979ZM325.016 52.3138V70.5535H339.93H354.845V52.3138V34.0742H339.93H325.016V52.3138ZM402.459 70.5535V52.3138V34.0742H416.305H430.135L431.363 36.3622C436.563 46.042 439.371 56.5217 439.881 68.0255L439.993 70.5535H421.218H402.459ZM0.287248 76.3053C0.813641 81.7772 1.30813 85.1531 2.1376 88.9131C3.92415 97.0569 6.79538 104.401 10.7832 111.025L11.9157 112.913H25.2032H38.4906V94.193V75.4734H19.3491H0.207492L0.287248 76.3053ZM43.3956 93.233V84.3532V75.4734H62.2979H81.2002V84.3532V93.233H62.2979H43.3956ZM86.1052 94.193V112.913H107.64H129.174V94.193V75.4734H107.64H86.1052V94.193ZM145.923 112.913V94.193V75.4734H161.236H176.549V94.193V112.913H161.236H145.923ZM181.454 81.6332V87.7931H190.674H199.878L206.577 100.369L213.038 112.913H214.282H214.952V94.193V75.4734H198.203H181.454V81.6332ZM219.857 112.913V94.193V75.4734H231.349H242.824L242.414 75.8894C241.525 76.8013 238.207 79.3613 236.548 80.4012C234.188 81.9052 230.597 83.6972 228.51 84.4332C228.185 84.5452 228.066 84.6732 228.134 84.8332C228.185 84.9771 232.341 91.313 237.386 98.9289L237.468 99.0529L237.478 99.0688C242.464 106.637 246.535 112.817 246.535 112.849C246.535 112.881 240.533 112.913 233.196 112.913H219.857ZM276.979 94.193V112.913H292.611H308.243V94.193V75.4734H292.611H276.979V94.193ZM325.016 112.913V94.193V75.4734H339.93H354.845V94.193V112.913H339.93H325.016ZM402.459 94.193V112.913H413.514H424.568L425.764 111.281C432.942 101.521 437.393 90.721 439.147 78.7053C439.323 77.5053 439.466 76.2733 439.466 75.9853V75.4734H420.963H402.459V94.193ZM30.8429 129.669C25.9527 127.048 21.5222 123.96 17.4409 120.303L14.6833 117.849L26.5961 117.832H38.4906V125.512V133.192L38.0494 133.042C37.167 132.725 32.4055 130.504 30.8429 129.669ZM43.3956 126.312V134.792H62.2979H81.2002V126.312V117.833H62.2979H43.3956V126.312ZM86.1052 134.792V126.312V117.833H107.64H129.174V126.312V134.792H107.64H86.1052ZM145.923 126.312V134.792H161.236H176.549V126.312V117.833H161.236H145.923V126.312ZM219.857 117.832V126.623L224.337 134.872H259.935L249.167 117.832H219.857ZM276.979 126.312V134.792H292.611H308.243V126.312V117.833H292.611H276.979V126.312ZM325.016 134.792V126.312V117.833H339.93H354.845V126.312V134.792H339.93H325.016ZM359.75 126.312V134.792H373.037H386.309L388.59 134.328C391.238 133.768 392.546 133.432 395.449 132.52L397.554 131.864V124.84V117.833H378.652H359.75V126.312ZM402.555 128.392C402.507 128.392 402.459 126.008 402.459 123.112V117.832H409.988C414.455 117.832 417.453 117.896 417.374 117.976C415.268 119.96 410.977 123.32 408.266 125.08C406.67 126.12 402.746 128.392 402.555 128.392ZM402.42 19.2545V9.23472L403.659 9.88095C405.16 10.6517 407.758 12.0802 409.045 12.8577C413.523 15.5484 418.473 19.3561 422.35 23.0791C424.492 25.1206 427.826 28.701 427.901 29.0097L428.021 29.1543H415.161H402.42V19.2545ZM272.077 29.1543V9.23472L255.927 29.1543H272.077ZM86.1052 42.954V51.8338H107.64H129.174L129.077 51.3415C128.028 46.1543 126.528 41.0901 124.544 35.9557L123.818 34.0742H104.962H86.1052V42.954ZM86.1052 3.23485V16.4346V29.1543H103.743H121.397L121.142 28.7063C121.006 28.4663 120.273 27.4583 119.506 26.4504C115.088 20.6248 109.723 15.6478 103.633 11.6829C100.178 9.0412 90.0812 4.56539 86.1052 3.23485Z" fill="url(#paint0_linear_120_1530)"/>
</g>
<defs>
<linearGradient id="paint0_linear_120_1530" x1="473.5" y1="162" x2="60.8411" y2="-39.1747" gradientUnits="userSpaceOnUse">
<stop stop-color="#FCFCFC"/>
<stop offset="0.472018" stop-color="#AB8EFD"/>
<stop offset="1" stop-color="#C5C5FE"/>
</linearGradient>
<clipPath id="clip0_120_1530">
<rect width="439.993" height="134.485" fill="white" transform="translate(0 0.386719)"/>
</clipPath>
</defs>
</svg>
