<svg width="3678" height="1097" viewBox="0 0 3678 1097" fill="none" xmlns="http://www.w3.org/2000/svg">
<g clip-path="url(#clip0_1_92)">
<path d="M505 -23.0667C464.2 -20.4 410.867 -10.6667 374.067 0.666655L363 4.13332V110V216H521H679V102.8V-10.4L672.733 -11.8667C651.667 -16.2667 620.6 -20.5333 593.133 -22.6667C577.4 -23.8667 521.133 -24.1333 505 -23.0667Z" fill="black"/>
<path d="M1220 108V216H1348H1476V108V-1.12653e-05H1348H1220V108Z" fill="black"/>
<path d="M1517 108V216H1657H1797V108V-1.12653e-05H1657H1517V108Z" fill="black"/>
<path d="M1839 107V215H1940.43H2042L2041.04 205.267C2034.56 136.6 2012.37 85.5333 1973.78 50.3333C1943.6 22.7333 1907.63 7.53332 1856.92 0.999989C1848.92 -0.0666779 1841.62 -1.00001 1840.79 -1.00001C1839.41 -1.00001 1839 21.5333 1839 107Z" fill="black"/>
<path d="M2717 108V216H2841.67H2966.33V108V-2.38418e-06H2841.67H2717V108Z" fill="black"/>
<path d="M3007.33 107.867V216H3165.33H3323.33L3323.07 123.733L3322.67 31.3333L3307.33 26.2667C3287.87 19.8667 3254 11.6 3233.33 8.00001C3194.67 1.46668 3185.73 1.06668 3094.4 0.400013L3007.33 -0.266654V107.867Z" fill="black"/>
<rect x="2315.47" width="261" height="216" fill="black"/>
<path fill-rule="evenodd" clip-rule="evenodd" d="M108.8 201.333C156.8 131.199 224.134 72.7993 302 33.7326L321.334 23.9993L321.334 24.1433L321.5 23.9999L322 216L100 215.5L100.189 215.336L99.2002 215.333L108.8 201.333Z" fill="black"/>
<path d="M59.1999 265.933C23.8666 344.333 3.59994 436.333 1.0666 531.267L0.266602 561H161.067H322V409V257H192.667H63.1999L59.1999 265.933Z" fill="black"/>
<path d="M1220 409V561H1348H1476V409V257H1348H1220V409Z" fill="black"/>
<path d="M2274.5 442V257H2106L1957 442H2274.5Z" fill="black"/>
<path d="M2315.47 409V561H2446.13H2576.8V409V257H2446.13H2315.47V409Z" fill="black"/>
<path d="M2717 409V561H2841.67H2966.33V409V257H2841.67H2717V409Z" fill="black"/>
<path d="M3364.33 409V561H3521.13H3678.07L3677.13 539.933C3672.87 444.067 3649.4 356.733 3605.93 276.067L3595.67 257H3480.07H3364.33V409Z" fill="black"/>
<path d="M2.66667 608.933C7.06667 654.533 11.2 682.667 18.1333 714C33.0667 781.867 57.0667 843.067 90.4 898.267L99.8667 914H210.933H322V758V602H162H2L2.66667 608.933Z" fill="black"/>
<path d="M363 676V750H521H679V676V602H521H363V676Z" fill="black"/>
<path d="M720 758V914H900H1080V758V602H900H720V758Z" fill="black"/>
<path d="M1220 758V914H1348H1476V758V602H1348H1220V758Z" fill="black"/>
<path d="M1517 653.333V704.667H1594.07H1671L1727 809.467L1781 914H1791.4H1797V758V602H1657H1517V653.333Z" fill="black"/>
<path d="M1838 758V914H1949.5C2010.82 914 2061 913.733 2061 913.467C2061 913.2 2026.55 861.067 1984.52 797.467C1942.35 734 1907.62 681.2 1907.19 680C1906.62 678.667 1907.62 677.6 1910.33 676.667C1927.77 670.533 1957.79 655.6 1977.52 643.067C1991.38 634.4 2019.12 613.067 2026.55 605.467L2029.98 602H1934.06H1838V758Z" fill="black"/>
<path d="M2315.47 758V914H2446.13H2576.8V758V602H2446.13H2315.47V758Z" fill="black"/>
<path d="M2717 758V914H2841.67H2966.33V758V602H2841.67H2717V758Z" fill="black"/>
<path d="M3364.33 758V914H3456.73H3549.13L3559.13 900.4C3619.13 819.067 3656.33 729.067 3671 628.933C3672.47 618.933 3673.67 608.667 3673.67 606.267V602H3519H3364.33V758Z" fill="black"/>
<path d="M146.05 975.591C180.164 1006.06 217.198 1031.8 258.074 1053.64C271.136 1060.6 310.936 1079.1 318.312 1081.75L322 1083V1019V955H222.577L123 955.139L146.05 975.591Z" fill="black"/>
<path d="M363 1025.67V1096.33H521H679V1025.67V955.001H521H363V1025.67Z" fill="black"/>
<path d="M720 1025.67V1096.33H900H1080V1025.67V955.001H900H720V1025.67Z" fill="black"/>
<path d="M1220 1025.67V1096.33H1348H1476V1025.67V955.001H1348H1220V1025.67Z" fill="black"/>
<path d="M1838 1028.26V955H2083L2173 1097H1875.44L1838 1028.26Z" fill="black"/>
<path d="M2315.47 1025.67V1096.33H2446.13H2576.8V1025.67V955.001H2446.13H2315.47V1025.67Z" fill="black"/>
<path d="M2717 1025.67V1096.33H2841.67H2966.33V1025.67V955.001H2841.67H2717V1025.67Z" fill="black"/>
<path d="M3007.33 1025.67V1096.33H3118.4H3229.33L3248.4 1092.47C3270.53 1087.8 3281.47 1085 3305.73 1077.4L3323.33 1071.93V1013.4V955.001H3165.33H3007.33V1025.67Z" fill="black"/>
<path d="M3364.33 999C3364.33 1023.13 3364.73 1043 3365.13 1043C3366.73 1043 3399.53 1024.07 3412.87 1015.4C3435.53 1000.73 3471.4 972.733 3489 956.2C3489.67 955.533 3464.6 955 3427.27 955H3364.33V999Z" fill="black"/>
<path fill-rule="evenodd" clip-rule="evenodd" d="M3364 133.5V50L3374.36 55.3853C3386.91 61.8086 3408.63 73.713 3419.38 80.1923C3456.81 102.615 3498.19 134.346 3530.6 165.372C3548.5 182.385 3576.37 212.223 3576.99 214.795L3578 216H3470.5H3364V133.5Z" fill="black"/>
<path d="M2274.5 50V216H2139.5L2274.5 50Z" fill="black"/>
<path d="M720 331V405H900H1080L1079.19 400.897C1070.43 357.669 1057.89 315.467 1041.3 272.679L1035.24 257H877.618H720V331Z" fill="black"/>
<path fill-rule="evenodd" clip-rule="evenodd" d="M720 110V0C753.234 11.0881 837.63 48.3873 866.51 70.4015C917.419 103.444 962.262 144.92 999.189 193.467C1005.6 201.867 1011.72 210.267 1012.86 212.267L1015 216H867.429H720V110Z" fill="black"/>
</g>
<defs>
<clipPath id="clip0_1_92">
<rect width="3678" height="1097" fill="white"/>
</clipPath>
</defs>
</svg>
